<?xml version="1.0" encoding="UTF-8"?>
<svg version="1.1" xmlns="http://www.w3.org/2000/svg" width="298" height="68">
<path d="M0 0 C2.97 0 5.94 0 9 0 C9.33 0.99 9.66 1.98 10 3 C10.82371094 2.27103516 10.82371094 2.27103516 11.6640625 1.52734375 C15.76199493 -1.15207361 20.27654414 -0.64751559 25 0 C27.46066399 1.08269216 28.94308666 2.22104793 31 4 C31.763125 3.34 32.52625 2.68 33.3125 2 C37.83914168 -0.99984093 42.77986882 -0.89199864 48 0 C51.6700697 1.70785422 53.60276377 4.02400674 55.14013672 7.80126953 C56.01325708 11.04931696 56.22988859 13.70080668 56.1953125 17.0546875 C56.18886719 18.16328125 56.18242187 19.271875 56.17578125 20.4140625 C56.15902344 21.55617188 56.14226562 22.69828125 56.125 23.875 C56.11597656 25.0403125 56.10695312 26.205625 56.09765625 27.40625 C56.07417432 30.27104577 56.04133141 33.13541535 56 36 C52.7 36 49.4 36 46 36 C45.98541748 35.2886792 45.97083496 34.5773584 45.95581055 33.84448242 C45.88138994 30.62493668 45.78471 27.40643482 45.6875 24.1875 C45.65366211 22.50817383 45.65366211 22.50817383 45.61914062 20.79492188 C45.58369141 19.72177734 45.54824219 18.64863281 45.51171875 17.54296875 C45.48553467 16.55321045 45.45935059 15.56345215 45.43237305 14.54370117 C45.1850892 11.97858763 45.1850892 11.97858763 43.69067383 10.1496582 C41.84963896 8.66009982 41.84963896 8.66009982 38.4375 9.0625 C34.99791591 9.60246564 34.99791591 9.60246564 33.81103516 11.73339844 C32.88540058 14.32027123 32.68168273 16.45842829 32.5859375 19.203125 C32.54726562 20.1828125 32.50859375 21.1625 32.46875 22.171875 C32.42234375 23.69554687 32.42234375 23.69554687 32.375 25.25 C32.33632812 26.28125 32.29765625 27.3125 32.2578125 28.375 C32.16368326 30.9164894 32.07805021 33.45797433 32 36 C29.03 36 26.06 36 23 36 C22.97494385 35.32420898 22.9498877 34.64841797 22.92407227 33.95214844 C22.80789258 30.8845832 22.68526563 27.81730842 22.5625 24.75 C22.52318359 23.68652344 22.48386719 22.62304688 22.44335938 21.52734375 C22.40146484 20.50253906 22.35957031 19.47773437 22.31640625 18.421875 C22.27974854 17.47924805 22.24309082 16.53662109 22.20532227 15.56542969 C22.02060772 13.25748623 21.64138388 11.21859476 21 9 C16.05907936 8.51970932 16.05907936 8.51970932 11.80371094 10.67675781 C9.63206354 13.4739149 9.46854483 14.91548267 9.390625 18.421875 C9.35839844 19.44667969 9.32617188 20.47148438 9.29296875 21.52734375 C9.27169922 23.12255859 9.27169922 23.12255859 9.25 24.75 C9.22035156 25.82894531 9.19070312 26.90789063 9.16015625 28.01953125 C9.08953064 30.67976244 9.03679804 33.33912102 9 36 C6.03 36 3.06 36 0 36 C0 24.12 0 12.24 0 0 Z " fill="#FFFFFF" transform="translate(179,18)"/>
<path d="M0 0 C9.9 0 19.8 0 30 0 C31.505625 3.361875 33.01125 6.72375 34.5625 10.1875 C35.04146729 11.23832764 35.52043457 12.28915527 36.01391602 13.37182617 C36.38186279 14.21205322 36.74980957 15.05228027 37.12890625 15.91796875 C37.70233765 17.19837036 37.70233765 17.19837036 38.28735352 18.50463867 C39.12456029 21.43615306 38.96388751 23.12386901 38 26 C31.22911383 29.76160343 23.31284353 29.18312662 15.8125 29.1875 C14.18344727 29.20586914 14.18344727 29.20586914 12.52148438 29.22460938 C5.90909253 29.23652359 -0.65565825 29.05599957 -7 27 C-7.66 26.34 -8.32 25.68 -9 25 C-8.72524911 19.30999778 -6.18069245 14.27138158 -3.9375 9.125 C-2.638125 6.11375 -1.33875 3.1025 0 0 Z " fill="#7C5099" transform="translate(9,34)"/>
<path d="M0 0 C1.03769531 -0.02578125 2.07539063 -0.0515625 3.14453125 -0.078125 C6.54901636 0.28898251 8.41142285 1.3000752 11.1875 3.25 C11.5175 2.26 11.8475 1.27 12.1875 0.25 C15.1575 0.25 18.1275 0.25 21.1875 0.25 C21.1875 16.75 21.1875 33.25 21.1875 50.25 C18.2175 50.25 15.2475 50.25 12.1875 50.25 C11.8575 44.64 11.5275 39.03 11.1875 33.25 C9.8675 34.24 8.5475 35.23 7.1875 36.25 C2.41082262 37.51417927 -1.79976076 37.5200638 -6.5625 36.25 C-12.23610376 32.75855153 -15.68714147 28.98309771 -17.375 22.4375 C-18.18157839 16.91747917 -17.41774568 12.19656125 -14.8125 7.25 C-10.39454908 2.23145207 -6.67555212 0.09877512 0 0 Z M-6.8125 12.25 C-8.08952106 16.50144898 -8.31249232 19.97224184 -6.6875 24.125 C-4.50773553 26.59539974 -2.86256933 27.97322679 0.1875 29.25 C3.74607941 29.17586293 5.8651153 28.42193851 9 26.75 C11.70618246 23.65722005 12.14533959 21.54405806 12.3984375 17.5078125 C12.067324 13.96367165 10.48490603 11.87560689 8.1875 9.25 C2.74380131 6.52815065 -3.07903376 7.61145103 -6.8125 12.25 Z " fill="#FEFEFE" transform="translate(276.8125,17.75)"/>
<path d="M0 0 C1.03769531 -0.02578125 2.07539062 -0.0515625 3.14453125 -0.078125 C6.54901636 0.28898251 8.41142285 1.3000752 11.1875 3.25 C11.5175 2.26 11.8475 1.27 12.1875 0.25 C15.1575 0.25 18.1275 0.25 21.1875 0.25 C21.1875 12.13 21.1875 24.01 21.1875 36.25 C18.2175 36.25 15.2475 36.25 12.1875 36.25 C11.8575 35.26 11.5275 34.27 11.1875 33.25 C10.62675781 33.72695313 10.06601563 34.20390625 9.48828125 34.6953125 C5.6680991 37.27669195 1.71409369 37.34794793 -2.8125 37.25 C-8.82122946 35.64767215 -12.67141295 32.53815922 -15.8125 27.25 C-18.2398031 21.12003117 -18.17397514 15.715537 -16.0078125 9.51953125 C-12.55670985 2.96694747 -7.14734612 0.10575605 0 0 Z M-6.8125 12.25 C-8.08952106 16.50144898 -8.31249232 19.97224184 -6.6875 24.125 C-4.50773553 26.59539974 -2.86256933 27.97322679 0.1875 29.25 C3.74607941 29.17586293 5.8651153 28.42193851 9 26.75 C11.70618246 23.65722005 12.14533959 21.54405806 12.3984375 17.5078125 C12.067324 13.96367165 10.48490603 11.87560689 8.1875 9.25 C2.74380131 6.52815065 -3.07903376 7.61145103 -6.8125 12.25 Z " fill="#FEFEFE" transform="translate(78.8125,17.75)"/>
<path d="M0 0 C4.26421817 3.22416496 7.85431792 6.81295376 9.5625 11.9375 C10.30596395 18.79930658 9.60815508 24.24459122 5.5625 29.9375 C1.14896828 34.35103172 -3.15896079 35.75374684 -9.3125 36.25 C-14.6067111 36.06813779 -19.26721911 34.92888572 -23.23828125 31.28515625 C-28.1234866 25.77035402 -28.85691388 21.33114169 -28.77734375 14.01953125 C-28.08968765 7.78320177 -25.13610714 4.35300595 -20.4375 0.4375 C-14.28591191 -2.60449411 -6.37499111 -1.9704518 0 0 Z M-18.4375 10.9375 C-19.65512731 14.59038193 -19.82825851 17.09504136 -19.4375 20.9375 C-17.1254749 24.60953986 -15.60809045 26.51409494 -11.5 28 C-7.61802776 27.92077608 -5.63551227 27.14057512 -2.4375 24.9375 C-0.03334531 21.52515141 0.5625 19.55560309 0.5625 15.375 C-0.66878604 11.14245424 -1.82739845 9.47225215 -5.4375 6.9375 C-10.898913 5.67972004 -14.54915404 6.81349671 -18.4375 10.9375 Z " fill="#FFFFFF" transform="translate(162.4375,19.0625)"/>
<path d="M0 0 C0.91644287 0.00523682 1.83288574 0.01047363 2.77709961 0.01586914 C3.76645508 0.0190918 4.75581055 0.02231445 5.77514648 0.02563477 C6.81606445 0.03401367 7.85698242 0.04239258 8.92944336 0.05102539 C10.49662109 0.05779297 10.49662109 0.05779297 12.09545898 0.06469727 C14.68600996 0.07652627 17.27644895 0.0930085 19.86694336 0.11352539 C20.19694336 1.10352539 20.52694336 2.09352539 20.86694336 3.11352539 C20.53694336 3.77352539 20.20694336 4.43352539 19.86694336 5.11352539 C19.20694336 5.11352539 18.54694336 5.11352539 17.86694336 5.11352539 C17.9278985 7.74069206 18.01527613 10.36285857 18.11694336 12.98852539 C18.13112305 13.71555664 18.14530273 14.44258789 18.15991211 15.19165039 C18.45782376 21.98403599 20.10419938 25.20666544 22.86694336 32.11352539 C13.62694336 32.11352539 4.38694336 32.11352539 -5.13305664 32.11352539 C-3.81305664 28.81352539 -2.49305664 25.51352539 -1.13305664 22.11352539 C-0.81737477 18.99416051 -0.65161471 16.31973923 -0.75805664 13.23852539 C-0.7593457 12.50633789 -0.76063477 11.77415039 -0.76196289 11.01977539 C-0.82355845 7.25560256 -1.04357763 4.30624932 -3.13305664 1.11352539 C-2.13305664 0.11352539 -2.13305664 0.11352539 0 0 Z " fill="#EF9033" transform="translate(15.133056640625,-0.113525390625)"/>
<path d="M0 0 C2.97 0 5.94 0 9 0 C9 3.3 9 6.6 9 10 C11.97 10 14.94 10 18 10 C18 12.64 18 15.28 18 18 C15.03 18 12.06 18 9 18 C9.33 24.6 9.66 31.2 10 38 C12.64 38 15.28 38 18 38 C18 40.64 18 43.28 18 46 C13.2243207 47.5918931 9.40613679 47.53061766 4.6875 45.75 C1.80092178 43.87036767 1.19141876 43.12704356 0 40 C-0.22705078 37.52636719 -0.22705078 37.52636719 -0.1953125 34.796875 C-0.18564453 33.32734375 -0.18564453 33.32734375 -0.17578125 31.828125 C-0.15902344 30.81234375 -0.14226562 29.7965625 -0.125 28.75 C-0.11597656 27.71875 -0.10695313 26.6875 -0.09765625 25.625 C-0.07412011 23.08309713 -0.04124023 20.5416672 0 18 C-2.31 18 -4.62 18 -7 18 C-7 15.36 -7 12.72 -7 10 C-4.69 10 -2.38 10 0 10 C0 6.7 0 3.4 0 0 Z " fill="#FFFFFF" transform="translate(112,8)"/>
<path d="M0 0 C3.3 0 6.6 0 10 0 C10 11.88 10 23.76 10 36 C6.7 36 3.4 36 0 36 C0 24.12 0 12.24 0 0 Z " fill="#FFFFFF" transform="translate(243,18)"/>
<path d="M0 0 C1.38294718 0.01329757 2.76582404 0.03715018 4.1484375 0.0703125 C4.85484375 0.07933594 5.56125 0.08835937 6.2890625 0.09765625 C8.03399848 0.12123647 9.77876045 0.15710789 11.5234375 0.1953125 C11.5234375 1.1853125 11.5234375 2.1753125 11.5234375 3.1953125 C12.5134375 2.8653125 13.5034375 2.5353125 14.5234375 2.1953125 C15.8434375 5.4953125 17.1634375 8.7953125 18.5234375 12.1953125 C9.2834375 12.1953125 0.0434375 12.1953125 -9.4765625 12.1953125 C-4.70414871 0.26427802 -4.70414871 0.26427802 0 0 Z " fill="#CF666E" transform="translate(19.4765625,19.8046875)"/>
<path d="M0 0 C1.1875 2.75 1.1875 2.75 2 6 C1 8.375 1 8.375 -1 10 C-4 10.5 -4 10.5 -7 10 C-9 8.375 -9 8.375 -10 6 C-9.3125 2.8125 -9.3125 2.8125 -8 0 C-5.13822943 -1.43088528 -3.06624227 -0.59991697 0 0 Z " fill="#FFFFFF" transform="translate(252,3)"/>
<path d="M0 0 C7.92 0.33 15.84 0.66 24 1 C24.66 2.32 25.32 3.64 26 5 C16.76 5 7.52 5 -2 5 C-1.34 3.35 -0.68 1.7 0 0 Z " fill="#CC5D7E" transform="translate(12,27)"/>
<path d="M0 0 C4.95 0 9.9 0 15 0 C15 0.99 15 1.98 15 3 C15.66 3.33 16.32 3.66 17 4 C11.06 4 5.12 4 -1 4 C-0.67 2.68 -0.34 1.36 0 0 Z " fill="#E27A53" transform="translate(16,20)"/>
<path d="M0 0 C8.58 0 17.16 0 26 0 C26.33 0.99 26.66 1.98 27 3 C17.76 3 8.52 3 -1 3 C-0.67 2.01 -0.34 1.02 0 0 Z " fill="#BF5986" transform="translate(11,29)"/>
<path d="M0 0 C0.33 0.66 0.66 1.32 1 2 C6.94 2 12.88 2 19 2 C19.33 1.34 19.66 0.68 20 0 C20.33 1.32 20.66 2.64 21 4 C17.36452836 5.21182388 14.24976375 4.91069629 10.5 4.625 C9.48486328 4.55925781 9.48486328 4.55925781 8.44921875 4.4921875 C5.43842761 4.27840351 2.87665396 3.95888465 0 3 C0 2.01 0 1.02 0 0 Z " fill="#D77064" transform="translate(14,22)"/>
</svg>
