<?xml version="1.0" encoding="UTF-8"?>
<svg version="1.1" xmlns="http://www.w3.org/2000/svg" width="520" height="160">
<path d="M0 0 C4.42958673 3.50246392 8.54523366 7.41160049 11.6875 12.125 C11.4617558 14.72618885 11.0517323 15.80163278 9.0859375 17.546875 C7.75267796 18.42198744 6.41934638 19.29699012 5.0859375 20.171875 C-1.43733928 25.48398964 -5.80737644 32.21855653 -10.0625 39.375 C-15.07369055 47.54764474 -20.43102914 54.44076875 -27.3125 61.125 C-27.93640625 61.74632813 -28.5603125 62.36765625 -29.203125 63.0078125 C-37.31157844 70.5479164 -46.87562288 73.28308938 -57.625 74.5 C-66.19903391 73.62806435 -74.04662804 71.15089438 -80.62890625 65.4921875 C-82.28400339 64.0220034 -82.28400339 64.0220034 -84.46484375 63.1953125 C-86.3125 62.125 -86.3125 62.125 -86.85546875 60.265625 C-87.00628906 59.55921875 -87.15710938 58.8528125 -87.3125 58.125 C-88.80202862 55.98875944 -88.80202862 55.98875944 -90.625 53.875 C-98.3125 44.30516975 -98.3125 44.30516975 -98.3125 39.125 C-97.67183594 39.269375 -97.03117187 39.41375 -96.37109375 39.5625 C-86.94772491 41.5848027 -77.9650923 42.26909558 -69.44067383 36.95898438 C-64.20004767 33.27519695 -60.58961803 29.04726027 -56.875 23.875 C-55.75039328 22.36105005 -54.62278937 20.84932185 -53.4921875 19.33984375 C-52.95045898 18.61522949 -52.40873047 17.89061523 -51.85058594 17.14404297 C-44.31596098 7.25335275 -36.09928188 -1.11462562 -23.875 -4.5625 C-15.12238477 -5.6298921 -7.71818599 -4.36878452 0 0 Z M-11.3125 16.125 C-12.4571875 16.434375 -12.4571875 16.434375 -13.625 16.75 C-20.59278443 20.31491297 -24.51054051 27.88893392 -28.50390625 34.328125 C-31.44674891 38.87904367 -34.77656651 43.02411473 -38.3125 47.125 C-38.97765625 47.91003906 -39.6428125 48.69507813 -40.328125 49.50390625 C-47.26103668 57.09159292 -55.7443662 62.98079544 -66.21484375 63.5546875 C-70.59882377 63.62960172 -74.94021565 63.43730602 -79.3125 63.125 C-71.45297852 69.77536433 -61.32142976 68.76275516 -51.6171875 68.3203125 C-40.00824926 67.33650417 -30.69739246 58.46663966 -23.3125 50.125 C-19.97731811 45.83263587 -17.03824584 41.29572557 -14.15625 36.69140625 C-8.9258434 28.35590376 -3.32834202 21.07627906 3.6875 14.125 C1.93784642 14.07070041 0.18770213 14.03207177 -1.5625 14 C-2.53703125 13.97679688 -3.5115625 13.95359375 -4.515625 13.9296875 C-7.36830505 14.128897 -8.87158795 14.71493265 -11.3125 16.125 Z " fill="#FAFAFA" transform="translate(111.3125,46.875)"/>
<path d="M0 0 C4.90931783 0.1176525 8.089555 0.29394061 12.0625 3.375 C14 6 14 6 14 9 C14.66 9 15.32 9 16 9 C17.5078125 10.6796875 17.5078125 10.6796875 19.125 12.875 C19.66382813 13.59429687 20.20265625 14.31359375 20.7578125 15.0546875 C22 17 22 17 22 19 C22.66 19 23.32 19 24 19 C24 19.99 24 20.98 24 22 C24.66 22 25.32 22 26 22 C26.99 22.99 27.98 23.98 29 25 C29.33 17.41 29.66 9.82 30 2 C39 0 39 0 42 1 C42.02529373 7.94172388 42.04284304 14.88343594 42.05493164 21.82519531 C42.05996959 24.18815556 42.06680008 26.55111268 42.07543945 28.9140625 C42.08752854 32.30469535 42.09323359 35.69528709 42.09765625 39.0859375 C42.10281754 40.14743011 42.10797882 41.20892273 42.11329651 42.30258179 C42.11337204 43.28344757 42.11344757 44.26431335 42.11352539 45.27490234 C42.115746 46.14094086 42.11796661 47.00697937 42.12025452 47.89926147 C42 50 42 50 41 52 C38.71484375 52.4140625 38.71484375 52.4140625 35.9375 52.625 C35.01839844 52.69976562 34.09929687 52.77453125 33.15234375 52.8515625 C32.44207031 52.90054688 31.73179687 52.94953125 31 53 C31.33 51.35 31.66 49.7 32 48 C31.34 48 30.68 48 30 48 C29.505 45.525 29.505 45.525 29 43 C28.34 43 27.68 43 27 43 C24 38.61538462 24 38.61538462 24 36 C23.34 36 22.68 36 22 36 C19.95830515 33.09451118 19 31.59857954 19 28 C18.34 28 17.68 28 17 28 C15.4921875 26.25 15.4921875 26.25 13.875 24 C13.33617187 23.2575 12.79734375 22.515 12.2421875 21.75 C11.62730469 20.88375 11.62730469 20.88375 11 20 C10.97494385 20.93384521 10.9498877 21.86769043 10.92407227 22.82983398 C10.82913072 26.28325189 10.72988742 29.7364896 10.62768555 33.18969727 C10.58428187 34.68639269 10.54261087 36.18313939 10.50268555 37.67993164 C10.44511384 39.82714312 10.38138284 41.97409521 10.31640625 44.12109375 C10.26141968 46.06133423 10.26141968 46.06133423 10.20532227 48.04077148 C10 51 10 51 9 52 C3.26388889 52.27314815 3.26388889 52.27314815 1 52 C-1 50 -1 50 -1.24723816 47.95068359 C-1.24581314 47.10844238 -1.24438812 46.26620117 -1.24291992 45.3984375 C-1.24599655 44.44404785 -1.24907318 43.4896582 -1.25224304 42.50634766 C-1.24505753 41.47300293 -1.23787201 40.4396582 -1.23046875 39.375 C-1.23001053 38.31716309 -1.22955231 37.25932617 -1.2290802 36.16943359 C-1.22605545 33.93000163 -1.21816254 31.69057182 -1.20581055 29.45117188 C-1.18757559 26.01424749 -1.18530067 22.57759266 -1.18554688 19.140625 C-1.180631 16.96874766 -1.17480237 14.79687215 -1.16796875 12.625 C-1.16685593 11.59165527 -1.1657431 10.55831055 -1.16459656 9.49365234 C-1.15821671 8.5392627 -1.15183685 7.58487305 -1.14526367 6.6015625 C-1.14145187 5.75932129 -1.13764008 4.91708008 -1.13371277 4.04931641 C-1 2 -1 2 0 0 Z " fill="#E2E2E2" transform="translate(371,52)"/>
<path d="M0 0 C3.87498404 -0.02917234 7.74993958 -0.04685673 11.625 -0.0625 C12.71941406 -0.07087891 13.81382812 -0.07925781 14.94140625 -0.08789062 C16.53662109 -0.09272461 16.53662109 -0.09272461 18.1640625 -0.09765625 C19.62513428 -0.10551147 19.62513428 -0.10551147 21.11572266 -0.11352539 C24.17460527 0.00687248 27.01288278 0.32546391 30 1 C31.6875 3 31.6875 3 33 5 C33.99 5.33 34.98 5.66 36 6 C37.46473108 9.49346781 37.13284103 13.33408805 37.125 17.0625 C37.12886719 18.90521484 37.12886719 18.90521484 37.1328125 20.78515625 C37 24 37 24 36 27 C35.34 27 34.68 27 34 27 C34 27.66 34 28.32 34 29 C32.35 29.66 30.7 30.32 29 31 C29 31.99 29 32.98 29 34 C29.66 34 30.32 34 31 34 C33.29648649 36.5614657 34 37.47967572 34 41 C34.66 41 35.32 41 36 41 C36.495 43.97 36.495 43.97 37 47 C37.66 47 38.32 47 39 47 C38.67 48.65 38.34 50.3 38 52 C36.54176788 52.0270043 35.08339325 52.04639787 33.625 52.0625 C32.40683594 52.07990234 32.40683594 52.07990234 31.1640625 52.09765625 C29 52 29 52 27 51 C26.1484375 48.93359375 26.1484375 48.93359375 25.375 46.4375 C25.11460937 45.61121094 24.85421875 44.78492188 24.5859375 43.93359375 C24.39257812 43.29550781 24.19921875 42.65742187 24 42 C23.34 42 22.68 42 22 42 C21.505 39.525 21.505 39.525 21 37 C20.34 37 19.68 37 19 37 C18.67 36.34 18.34 35.68 18 35 C15.36 34.67 12.72 34.34 10 34 C10 39.61 10 45.22 10 51 C7.01787087 52.49106457 4.28390342 52.11941467 1 52 C0 51 0 51 -0.12025452 48.94358826 C-0.11803391 48.03979935 -0.11581329 47.13601044 -0.11352539 46.20483398 C-0.11344986 45.18385117 -0.11337433 44.16286835 -0.11329651 43.11094666 C-0.10813522 42.0005452 -0.10297394 40.89014374 -0.09765625 39.74609375 C-0.0962413 38.61551041 -0.09482635 37.48492706 -0.09336853 36.32008362 C-0.08775019 32.69252935 -0.07519458 29.06503576 -0.0625 25.4375 C-0.05748736 22.98502693 -0.05292405 20.5325529 -0.04882812 18.08007812 C-0.0377748 12.05336455 -0.02101884 6.02668661 0 0 Z M10 9 C10 13.95 10 18.9 10 24 C14.95 24 19.9 24 25 24 C25 23.34 25 22.68 25 22 C25.66 22 26.32 22 27 22 C27.10824843 20.3973218 27.18570645 18.79254252 27.25 17.1875 C27.29640625 16.29417969 27.3428125 15.40085937 27.390625 14.48046875 C27.21377839 11.91692561 27.21377839 11.91692561 25.40625 10.1875 C22.21522325 8.61270758 19.79098223 8.70627053 16.25 8.8125 C14.1875 8.874375 12.125 8.93625 10 9 Z " fill="#E2E2E2" transform="translate(282,52)"/>
<path d="M0 0 C0 0.66 0 1.32 0 2 C2.97 2.495 2.97 2.495 6 3 C6 3.66 6 4.32 6 5 C6.86625 5.4021875 6.86625 5.4021875 7.75 5.8125 C8.4925 6.204375 9.235 6.59625 10 7 C10.721875 7.37125 11.44375 7.7425 12.1875 8.125 C15.03130719 11.06686951 14.73666831 13.98419167 15 18 C11.86501708 19.85776765 9.62528568 20.20140476 6 20 C5.443125 18.865625 4.88625 17.73125 4.3125 16.5625 C2.5777124 13.44531169 2.5777124 13.44531169 -0.75 12.0625 C-1.86375 12.0315625 -1.86375 12.0315625 -3 12 C-3 11.34 -3 10.68 -3 10 C-5.31 10 -7.62 10 -10 10 C-10 10.66 -10 11.32 -10 12 C-11.32 12 -12.64 12 -14 12 C-14 13.98 -14 15.96 -14 18 C-12.35 18.33 -10.7 18.66 -9 19 C-9 19.66 -9 20.32 -9 21 C-8.29875 20.95875 -7.5975 20.9175 -6.875 20.875 C-3.59596996 21.01756652 -1.07669387 21.88715328 2 23 C3.32911682 23.34976758 4.66082739 23.69096017 6 24 C6 24.66 6 25.32 6 26 C6.5775 26.103125 7.155 26.20625 7.75 26.3125 C10.37757361 27.11536971 11.95923541 28.17034898 14 30 C14.98275588 32.94826763 15.13414725 34.92652504 15.125 38 C15.12886719 39.299375 15.12886719 39.299375 15.1328125 40.625 C15 43 15 43 14 46 C11.9375 46.6875 11.9375 46.6875 10 47 C10 47.99 10 48.98 10 50 C7.35261084 51.4606285 6.10551666 52 3 52 C3 52.66 3 53.32 3 54 C-2.61 54 -8.22 54 -14 54 C-14 53.34 -14 52.68 -14 52 C-14.99 52 -15.98 52 -17 52 C-17 51.34 -17 50.68 -17 50 C-18.32 49.67 -19.64 49.34 -21 49 C-21 48.34 -21 47.68 -21 47 C-21.99 47 -22.98 47 -24 47 C-24 45.68 -24 44.36 -24 43 C-24.66 43 -25.32 43 -26 43 C-26.125 37.25 -26.125 37.25 -25 35 C-22.03 35 -19.06 35 -16 35 C-14 39 -14 39 -14 42 C-7.83056093 44.68924267 -2.25544504 44.08514835 4 42 C4.33 40.02 4.66 38.04 5 36 C4.34 36 3.68 36 3 36 C3 35.34 3 34.68 3 34 C1.865625 33.855625 0.73125 33.71125 -0.4375 33.5625 C-4 33 -4 33 -5 32 C-7.32817964 31.63239269 -9.6618385 31.29758419 -12 31 C-12 30.34 -12 29.68 -12 29 C-13.98 28.67 -15.96 28.34 -18 28 C-18 27.34 -18 26.68 -18 26 C-18.99 25.67 -19.98 25.34 -21 25 C-21 24.34 -21 23.68 -21 23 C-21.99 23 -22.98 23 -24 23 C-24 18.38 -24 13.76 -24 9 C-23.34 9 -22.68 9 -22 9 C-21.67 8.01 -21.34 7.02 -21 6 C-20.34 6 -19.68 6 -19 6 C-18.67 5.01 -18.34 4.02 -18 3 C-11.88661433 -0.0011166 -6.74029309 -0.37292605 0 0 Z " fill="#DCDCDC" transform="translate(178,50)"/>
<path d="M0 0 C1.99609375 0.015625 1.99609375 0.015625 4.4375 0.25 C5.64212891 0.35054687 5.64212891 0.35054687 6.87109375 0.453125 C9 1 9 1 11 4 C11 4.99 11 5.98 11 7 C11.66 7 12.32 7 13 7 C13.66 9.31 14.32 11.62 15 14 C15.33 14 15.66 14 16 14 C16 15.65 16 17.3 16 19 C16.66 19 17.32 19 18 19 C18.66 21.31 19.32 23.62 20 26 C20.33 26 20.66 26 21 26 C21.495 29.96 21.495 29.96 22 34 C22.66 34 23.32 34 24 34 C24.495 36.475 24.495 36.475 25 39 C25.33 39 25.66 39 26 39 C26.495 42.96 26.495 42.96 27 47 C27.66 47 28.32 47 29 47 C28.67 48.65 28.34 50.3 28 52 C24.7 52 21.4 52 18 52 C13.42857143 43.57142857 13.42857143 43.57142857 14 39 C13.34 39 12.68 39 12 39 C11.67 38.01 11.34 37.02 11 36 C8.525 36.495 8.525 36.495 6 37 C6 37.66 6 38.32 6 39 C5.01 39 4.02 39 3 39 C2.67 39.99 2.34 40.98 2 42 C0.02053408 43.36363208 -1.9819245 44.69418644 -4 46 C-4.7425 46.7425 -5.485 47.485 -6.25 48.25 C-7.11625 49.11625 -7.11625 49.11625 -8 50 C-8.66 50 -9.32 50 -10 50 C-10 50.66 -10 51.32 -10 52 C-12.97 52 -15.94 52 -19 52 C-19.33 50.35 -19.66 48.7 -20 47 C-19.34 47 -18.68 47 -18 47 C-17.67 44.36 -17.34 41.72 -17 39 C-16.34 39 -15.68 39 -15 39 C-15.0309375 37.8553125 -15.0309375 37.8553125 -15.0625 36.6875 C-15 34 -15 34 -14 31 C-13.34 31 -12.68 31 -12 31 C-12 29.35 -12 27.7 -12 26 C-11.34 26 -10.68 26 -10 26 C-9.67 23.36 -9.34 20.72 -9 18 C-8.34 18 -7.68 18 -7 18 C-6.87625 17.484375 -6.7525 16.96875 -6.625 16.4375 C-5.81358372 13.27297649 -4.9054087 10.13875015 -4 7 C-3.34 7 -2.68 7 -2 7 C-1.855625 6.030625 -1.71125 5.06125 -1.5625 4.0625 C-1 1 -1 1 0 0 Z M3 15 C3 16.98 3 18.96 3 21 C2.34 21 1.68 21 1 21 C-0.35439668 23.70879335 -0.06501451 26.00933268 0 29 C0.99 29 1.98 29 3 29 C3 28.34 3 27.68 3 27 C3.639375 26.87625 4.27875 26.7525 4.9375 26.625 C5.618125 26.41875 6.29875 26.2125 7 26 C8.35026777 23.87060172 8.35026777 23.87060172 7.0625 20.875 C6.711875 19.92625 6.36125 18.9775 6 18 C5.34 18 4.68 18 4 18 C3.67 17.01 3.34 16.02 3 15 Z M-2 29 C-1.67 29.66 -1.34 30.32 -1 31 C-0.67 30.34 -0.34 29.68 0 29 C-0.66 29 -1.32 29 -2 29 Z " fill="#E4E4E4" transform="translate(250,52)"/>
<path d="M0 0 C0.33 5.28 0.66 10.56 1 16 C2.11375 14.906875 3.2275 13.81375 4.375 12.6875 C5.00148438 12.07261719 5.62796875 11.45773438 6.2734375 10.82421875 C8.18086607 8.91187472 8.18086607 8.91187472 10 6 C10.99 5.67 11.98 5.34 13 5 C14.21869929 2.49552484 14.21869929 2.49552484 15 0 C16.43640171 -0.19573608 17.87419504 -0.38127816 19.3125 -0.5625 C20.11300781 -0.66691406 20.91351563 -0.77132812 21.73828125 -0.87890625 C24 -1 24 -1 27 0 C26.49259538 4.39750672 23.91706686 6.86948922 21 10 C20.34 10 19.68 10 19 10 C19 10.66 19 11.32 19 12 C17.34997172 13.35386936 15.6825613 14.68678142 14 16 C13.67 16.66 13.34 17.32 13 18 C12.34 18 11.68 18 11 18 C11 18.66 11 19.32 11 20 C10.01 20.66 9.02 21.32 8 22 C8.33 22.66 8.66 23.32 9 24 C9.33 24.66 9.66 25.32 10 26 C10.5775 26.268125 11.155 26.53625 11.75 26.8125 C14.75302926 28.39743211 16.73980783 30.48867536 19 33 C19 33.66 19 34.32 19 35 C19.66 35 20.32 35 21 35 C21.33 35.99 21.66 36.98 22 38 C22.99 38.495 22.99 38.495 24 39 C24 39.66 24 40.32 24 41 C24.66 41 25.32 41 26 41 C28.17633205 43.26003713 28.95661225 44.53358172 29.25 47.6875 C29 50 29 50 28 51 C24.55445215 51.61892248 21.42838683 51.75062507 18 51 C15.02773638 48.12999315 13.65772092 44.54564416 12.0625 40.796875 C11.06180631 38.65635147 11.06180631 38.65635147 8 38 C8 37.34 8 36.68 8 36 C7.34 36 6.68 36 6 36 C6 35.34 6 34.68 6 34 C5.0409375 33.814375 5.0409375 33.814375 4.0625 33.625 C3.381875 33.41875 2.70125 33.2125 2 33 C1.67 32.34 1.34 31.68 1 31 C0.97494385 31.57032959 0.9498877 32.14065918 0.92407227 32.72827148 C0.80843451 35.29826157 0.68556376 37.86785527 0.5625 40.4375 C0.50352539 41.78424805 0.50352539 41.78424805 0.44335938 43.15820312 C0.40146484 44.01220703 0.35957031 44.86621094 0.31640625 45.74609375 C0.27974854 46.53685303 0.24309082 47.3276123 0.20532227 48.14233398 C0 50 0 50 -1 51 C-3.67058851 51.14115161 -6.32432238 51.04247107 -9 51 C-9.495 49.515 -9.495 49.515 -10 48 C-10.66 48 -11.32 48 -12 48 C-12 32.49 -12 16.98 -12 1 C-6 -1 -6 -1 0 0 Z " fill="#F1F1F1" transform="translate(337,53)"/>
<path d="M0 0 C1.14984375 -0.00128906 2.2996875 -0.00257812 3.484375 -0.00390625 C5.28648437 0.00189453 5.28648437 0.00189453 7.125 0.0078125 C8.32640625 0.00394531 9.5278125 0.00007813 10.765625 -0.00390625 C11.91546875 -0.00261719 13.0653125 -0.00132813 14.25 0 C15.83167969 0.00169189 15.83167969 0.00169189 17.4453125 0.00341797 C20.125 0.1328125 20.125 0.1328125 23.125 1.1328125 C23.22265625 7.28515625 23.22265625 7.28515625 23.125 9.1328125 C22.125 10.1328125 22.125 10.1328125 20.08374023 10.24633789 C19.20919189 10.24110107 18.33464355 10.23586426 17.43359375 10.23046875 C16.48935547 10.22724609 15.54511719 10.22402344 14.57226562 10.22070312 C13.57904297 10.21232422 12.58582031 10.20394531 11.5625 10.1953125 C10.56541016 10.19080078 9.56832031 10.18628906 8.54101562 10.18164062 C6.06895151 10.16981257 3.59700482 10.15333099 1.125 10.1328125 C1.125 13.1028125 1.125 16.0728125 1.125 19.1328125 C7.395 19.1328125 13.665 19.1328125 20.125 19.1328125 C20.125 22.4328125 20.125 25.7328125 20.125 29.1328125 C13.855 29.4628125 7.585 29.7928125 1.125 30.1328125 C1.125 34.0928125 1.125 38.0528125 1.125 42.1328125 C9.045 42.1328125 16.965 42.1328125 25.125 42.1328125 C25.125 50.1328125 25.125 50.1328125 24.125 52.1328125 C12.575 52.1328125 1.025 52.1328125 -10.875 52.1328125 C-9.885 51.6378125 -9.885 51.6378125 -8.875 51.1328125 C-8.875 34.6328125 -8.875 18.1328125 -8.875 1.1328125 C-5.67587999 0.06643916 -3.3612254 0.00359544 0 0 Z " fill="#DADADA" transform="translate(429.875,51.8671875)"/>
<path d="M0 0 C1.11140099 -0.0049926 1.11140099 -0.0049926 2.24525452 -0.01008606 C3.81120178 -0.01514478 5.37715981 -0.01749471 6.94311523 -0.01733398 C9.33530478 -0.01951996 11.72703268 -0.03768495 14.11914062 -0.05664062 C15.64192551 -0.05957489 17.16471258 -0.06155947 18.6875 -0.0625 C19.40115219 -0.06968552 20.11480438 -0.07687103 20.8500824 -0.08427429 C24.5371502 -0.06736152 27.27710187 0.13286971 30.41015625 2.16796875 C30.41015625 4.80796875 30.41015625 7.44796875 30.41015625 10.16796875 C25.46015625 10.16796875 20.51015625 10.16796875 15.41015625 10.16796875 C15.41801147 12.0231311 15.41801147 12.0231311 15.42602539 13.91577148 C15.44407186 18.487216 15.45558696 23.05865734 15.46508789 27.63012695 C15.47012892 29.61190316 15.47696163 31.59367564 15.4855957 33.57543945 C15.4976714 36.41748984 15.5033867 39.25949122 15.5078125 42.1015625 C15.51297379 42.99322617 15.51813507 43.88488983 15.52345276 44.80357361 C15.52364802 46.92537476 15.47225655 49.04707655 15.41015625 51.16796875 C14.41015625 52.16796875 14.41015625 52.16796875 12.4140625 52.30078125 C11.60839844 52.29820313 10.80273438 52.295625 9.97265625 52.29296875 C9.16957031 52.29554687 8.36648438 52.298125 7.5390625 52.30078125 C5.41015625 52.16796875 5.41015625 52.16796875 3.41015625 51.16796875 C3.41015625 37.96796875 3.41015625 24.76796875 3.41015625 11.16796875 C-1.53984375 11.16796875 -6.48984375 11.16796875 -11.58984375 11.16796875 C-11.25984375 7.86796875 -10.92984375 4.56796875 -10.58984375 1.16796875 C-7.0072599 -0.02622587 -3.72951663 0.00579912 0 0 Z " fill="#D9D9D9" transform="translate(468.58984375,51.83203125)"/>
<path d="M0 0 C0.74472061 -0.00095673 1.48944122 -0.00191345 2.25672913 -0.00289917 C3.83285608 -0.00358007 5.40898584 -0.00173205 6.98510742 0.00244141 C9.3970369 0.00778344 11.80877952 0.0024973 14.22070312 -0.00390625 C15.75130249 -0.0032453 17.28190175 -0.0019638 18.8125 0 C19.53445053 -0.00202423 20.25640106 -0.00404846 21.00022888 -0.00613403 C24.09869883 0.00835637 26.50965213 0.14514446 29.47265625 1.1328125 C29.96765625 6.0828125 29.96765625 6.0828125 30.47265625 11.1328125 C25.52265625 10.8028125 20.57265625 10.4728125 15.47265625 10.1328125 C15.48312988 11.33405762 15.49360352 12.53530273 15.50439453 13.77294922 C15.54052912 18.21953362 15.56353282 22.66610498 15.58251953 27.11279297 C15.59259207 29.03924744 15.60625068 30.96568658 15.62353516 32.89208984 C15.64772866 35.65726502 15.65912661 38.4222385 15.66796875 41.1875 C15.67829132 42.0521286 15.68861389 42.9167572 15.69924927 43.80758667 C15.69964731 45.91734771 15.59530868 48.02661968 15.47265625 50.1328125 C13.0750244 52.53044435 12.13992127 52.47561836 8.84765625 52.7578125 C8.03039062 52.83257812 7.213125 52.90734375 6.37109375 52.984375 C5.74460938 53.03335938 5.118125 53.08234375 4.47265625 53.1328125 C3.2833723 48.9017111 3.34721267 44.79357198 3.375 40.4296875 C3.37641495 39.59189758 3.3778299 38.75410767 3.37928772 37.89093018 C3.38487428 35.22152093 3.39742431 32.5521963 3.41015625 29.8828125 C3.41517299 28.07031371 3.41973559 26.25781361 3.42382812 24.4453125 C3.43483931 20.00778002 3.4520947 15.57031059 3.47265625 11.1328125 C-0.81734375 10.8028125 -5.10734375 10.4728125 -9.52734375 10.1328125 C-9.52734375 9.4728125 -9.52734375 8.8128125 -9.52734375 8.1328125 C-10.18734375 8.1328125 -10.84734375 8.1328125 -11.52734375 8.1328125 C-11.52734375 6.4828125 -11.52734375 4.8328125 -11.52734375 3.1328125 C-10.86734375 3.1328125 -10.20734375 3.1328125 -9.52734375 3.1328125 C-9.52734375 2.4728125 -9.52734375 1.8128125 -9.52734375 1.1328125 C-6.48905791 -0.38633042 -3.33197858 -0.0093162 0 0 Z " fill="#DDDDDD" transform="translate(205.52734375,51.8671875)"/>
<path d="M0 0 C0.99 0.33 1.98 0.66 3 1 C3.703125 2.7421875 3.703125 2.7421875 4.25 4.875 C5.26909088 8.01841858 5.26909088 8.01841858 7.7109375 10.08984375 C9.46458716 10.75193597 11.23178534 11.3778504 13 12 C13.33 12.99 13.66 13.98 14 15 C13.38511719 15.03996094 12.77023438 15.07992187 12.13671875 15.12109375 C9.48805972 15.46326501 7.42104609 15.85386648 5 17 C3.30201655 19.86665724 2.58419961 22.73654012 2 26 C1.34 26 0.68 26 0 26 C-0.13535156 25.38511719 -0.27070312 24.77023438 -0.41015625 24.13671875 C-1.5661598 19.30217235 -1.5661598 19.30217235 -4.7578125 15.734375 C-6.88302063 14.81325491 -6.88302063 14.81325491 -10 14 C-10 13.01 -10 12.02 -10 11 C-8.68 11 -7.36 11 -6 11 C-5.67 10.34 -5.34 9.68 -5 9 C-4.34 9 -3.68 9 -3 9 C-2.01 6.03 -1.02 3.06 0 0 Z " fill="#EDEDED" transform="translate(38,42)"/>
<path d="M0 0 C3.5625 0.625 3.5625 0.625 6.5625 2.6875 C8.5625 5.625 8.5625 5.625 8.6875 9.1875 C7.34490253 13.28988116 6.38375828 14.63130003 2.5625 16.625 C-1.2512751 16.625 -3.46174548 16.47485071 -6.375 13.9375 C-7.78339562 10.87216836 -7.91522045 8.96904315 -7.4375 5.625 C-5.35210259 1.78786876 -4.33645599 0.78844654 0 0 Z " fill="#F7F7F7" transform="translate(104.4375,102.375)"/>
<path d="M0 0 C0.99 0.33 1.98 0.66 3 1 C2.34 1.66 1.68 2.32 1 3 C0.67022394 5.01833943 0.67022394 5.01833943 0.68115234 7.35791016 C0.66128265 8.25869293 0.64141296 9.15947571 0.62094116 10.08755493 C0.60938995 11.06155243 0.59783875 12.03554993 0.5859375 13.0390625 C0.56657135 14.03505463 0.5472052 15.03104675 0.5272522 16.05722046 C0.46735035 19.2463925 0.42102862 22.43560043 0.375 25.625 C0.33682999 27.78387013 0.29777884 29.94272488 0.2578125 32.1015625 C0.1616403 37.40090534 0.07662411 42.70034043 0 48 C-0.66 48 -1.32 48 -2 48 C-2 32.49 -2 16.98 -2 1 C-1.34 0.67 -0.68 0.34 0 0 Z " fill="#606060" transform="translate(327,53)"/>
<path d="M0 0 C0.33 0 0.66 0 1 0 C1.375 2.125 1.375 2.125 1 5 C-0.79340357 7.23913252 -2.83452663 9.12454539 -5 11 C-5.99 10.67 -6.98 10.34 -8 10 C-7.25943359 9.29423828 -7.25943359 9.29423828 -6.50390625 8.57421875 C-5.86324219 7.95160156 -5.22257812 7.32898438 -4.5625 6.6875 C-3.92441406 6.07261719 -3.28632813 5.45773438 -2.62890625 4.82421875 C-0.7778582 2.99355944 -0.7778582 2.99355944 0 0 Z " fill="#8E8E8E" transform="translate(346,59)"/>
<path d="M0 0 C0.66 0.33 1.32 0.66 2 1 C-0.64 3.64 -3.28 6.28 -6 9 C-6 6 -6 6 -4.6875 4.39453125 C-4.130625 3.87246094 -3.57375 3.35039063 -3 2.8125 C-2.443125 2.28269531 -1.88625 1.75289062 -1.3125 1.20703125 C-0.6628125 0.60955078 -0.6628125 0.60955078 0 0 Z " fill="#000000" transform="translate(70,49)"/>
<path d="M0 0 C0 0.99 0 1.98 0 3 C-0.99 3 -1.98 3 -3 3 C-2.01 2.01 -1.02 1.02 0 0 Z " fill="#000000" transform="translate(112,115)"/>
<path d="M0 0 C0.66 0.33 1.32 0.66 2 1 C0.68 1.99 -0.64 2.98 -2 4 C-1.34 2.68 -0.68 1.36 0 0 Z " fill="#000000" transform="translate(108,64)"/>
<path d="M0 0 C0 0.99 0 1.98 0 3 C-0.99 3.495 -0.99 3.495 -2 4 C-1.34 2.68 -0.68 1.36 0 0 Z " fill="#000000" transform="translate(90,102)"/>
<path d="M0 0 C0 0.99 0 1.98 0 3 C-0.99 3.495 -0.99 3.495 -2 4 C-1.34 2.68 -0.68 1.36 0 0 Z " fill="#000000" transform="translate(86,95)"/>
<path d="M0 0 C0.66 0.33 1.32 0.66 2 1 C0.02 1.99 0.02 1.99 -2 3 C-1.34 2.01 -0.68 1.02 0 0 Z " fill="#000000" transform="translate(117,66)"/>
<path d="M0 0 C0.66 0.33 1.32 0.66 2 1 C1.01 1.66 0.02 2.32 -1 3 C-0.67 2.01 -0.34 1.02 0 0 Z " fill="#000000" transform="translate(98,103)"/>
<path d="M0 0 C0.66 0.33 1.32 0.66 2 1 C1.01 1 0.02 1 -1 1 C-0.67 0.67 -0.34 0.34 0 0 Z " fill="#000000" transform="translate(83,109)"/>
<path d="M0 0 C0.66 0.33 1.32 0.66 2 1 C1.01 1 0.02 1 -1 1 C-0.67 0.67 -0.34 0.34 0 0 Z " fill="#000000" transform="translate(76,105)"/>
<path d="M0 0 C0.66 0.33 1.32 0.66 2 1 C1.01 1 0.02 1 -1 1 C-0.67 0.67 -0.34 0.34 0 0 Z " fill="#000000" transform="translate(67,101)"/>
<path d="M0 0 C0 3 0 3 0 3 Z " fill="#000000" transform="translate(94,97)"/>
<path d="M0 0 C0 3 0 3 0 3 Z " fill="#000000" transform="translate(74,94)"/>
<path d="M0 0 C0 3 0 3 0 3 Z " fill="#000000" transform="translate(89,91)"/>
<path d="M0 0 C0 3 0 3 0 3 Z " fill="#000000" transform="translate(79,88)"/>
<path d="M0 0 C0.66 0.33 1.32 0.66 2 1 C1.01 1 0.02 1 -1 1 C-0.67 0.67 -0.34 0.34 0 0 Z " fill="#000000" transform="translate(41,82)"/>
<path d="M0 0 C0 3 0 3 0 3 Z " fill="#000000" transform="translate(100,74)"/>
<path d="M0 0 C0 3 0 3 0 3 Z " fill="#000000" transform="translate(51,72)"/>
<path d="M0 0 C0 3 0 3 0 3 Z " fill="#000000" transform="translate(112,71)"/>
<path d="M0 0 C0 3 0 3 0 3 Z " fill="#000000" transform="translate(103,70)"/>
<path d="M0 0 C0 3 0 3 0 3 Z " fill="#000000" transform="translate(55,67)"/>
<path d="M0 0 C0 3 0 3 0 3 Z " fill="#000000" transform="translate(60,60)"/>
<path d="M0 0 C0.99 0.33 1.98 0.66 3 1 C2.01 1 1.02 1 0 1 C0 0.67 0 0.34 0 0 Z " fill="#000000" transform="translate(113,47)"/>
<path d="M0 0 C0.66 0.66 1.32 1.32 2 2 C1.34 2 0.68 2 0 2 C0 1.34 0 0.68 0 0 Z " fill="#000000" transform="translate(28,111)"/>
<path d="M0 0 C0.66 0.66 1.32 1.32 2 2 C1.34 2 0.68 2 0 2 C0 1.34 0 0.68 0 0 Z " fill="#000000" transform="translate(340,63)"/>
<path d="" fill="#000000" transform="translate(0,0)"/>
<path d="M0 0 C2 1 2 1 2 1 Z " fill="#000000" transform="translate(75,115)"/>
<path d="M0 0 C2 1 2 1 2 1 Z " fill="#000000" transform="translate(32,115)"/>
<path d="M0 0 C2 1 2 1 2 1 Z " fill="#000000" transform="translate(78,113)"/>
<path d="M0 0 C2 1 2 1 2 1 Z " fill="#000000" transform="translate(68,110)"/>
<path d="M0 0 C2 1 2 1 2 1 Z " fill="#000000" transform="translate(70,109)"/>
<path d="M0 0 C2 1 2 1 2 1 Z " fill="#000000" transform="translate(55,109)"/>
<path d="M0 0 C2 1 2 1 2 1 Z " fill="#000000" transform="translate(72,108)"/>
<path d="M0 0 C2 1 2 1 2 1 Z " fill="#000000" transform="translate(57,108)"/>
<path d="M0 0 C2 1 2 1 2 1 Z " fill="#000000" transform="translate(59,107)"/>
<path d="M0 0 C2 1 2 1 2 1 Z " fill="#000000" transform="translate(62,105)"/>
<path d="" fill="#000000" transform="translate(0,0)"/>
<path d="M0 0 C2 1 2 1 2 1 Z " fill="#000000" transform="translate(159,102)"/>
<path d="M0 0 C2 1 2 1 2 1 Z " fill="#000000" transform="translate(306,100)"/>
<path d="" fill="#000000" transform="translate(0,0)"/>
<path d="" fill="#000000" transform="translate(0,0)"/>
<path d="" fill="#000000" transform="translate(0,0)"/>
<path d="" fill="#000000" transform="translate(0,0)"/>
<path d="M0 0 C2 1 2 1 2 1 Z " fill="#000000" transform="translate(348,97)"/>
<path d="" fill="#000000" transform="translate(0,0)"/>
<path d="" fill="#000000" transform="translate(0,0)"/>
<path d="" fill="#000000" transform="translate(0,0)"/>
<path d="M0 0 C2 1 2 1 2 1 Z " fill="#000000" transform="translate(230,94)"/>
<path d="M0 0 C2 1 2 1 2 1 Z " fill="#000000" transform="translate(151,94)"/>
<path d="M0 0 C2 1 2 1 2 1 Z " fill="#000000" transform="translate(301,92)"/>
<path d="" fill="#000000" transform="translate(0,0)"/>
<path d="" fill="#000000" transform="translate(0,0)"/>
<path d="" fill="#000000" transform="translate(0,0)"/>
<path d="" fill="#000000" transform="translate(0,0)"/>
<path d="M0 0 C2 1 2 1 2 1 Z " fill="#000000" transform="translate(298,87)"/>
<path d="M0 0 C2 1 2 1 2 1 Z " fill="#000000" transform="translate(390,86)"/>
<path d="" fill="#000000" transform="translate(0,0)"/>
<path d="" fill="#000000" transform="translate(0,0)"/>
<path d="" fill="#000000" transform="translate(0,0)"/>
<path d="M0 0 C2 1 2 1 2 1 Z " fill="#000000" transform="translate(36,85)"/>
<path d="" fill="#000000" transform="translate(0,0)"/>
<path d="M0 0 C2 1 2 1 2 1 Z " fill="#000000" transform="translate(38,84)"/>
<path d="" fill="#000000" transform="translate(0,0)"/>
<path d="M0 0 C2 1 2 1 2 1 Z " fill="#000000" transform="translate(235,81)"/>
<path d="" fill="#000000" transform="translate(0,0)"/>
<path d="" fill="#000000" transform="translate(0,0)"/>
<path d="M0 0 C2 1 2 1 2 1 Z " fill="#000000" transform="translate(385,79)"/>
<path d="" fill="#000000" transform="translate(0,0)"/>
<path d="" fill="#000000" transform="translate(0,0)"/>
<path d="" fill="#000000" transform="translate(0,0)"/>
<path d="" fill="#000000" transform="translate(0,0)"/>
<path d="M0 0 C2 1 2 1 2 1 Z " fill="#000000" transform="translate(156,76)"/>
<path d="" fill="#000000" transform="translate(0,0)"/>
<path d="" fill="#000000" transform="translate(0,0)"/>
<path d="" fill="#000000" transform="translate(0,0)"/>
<path d="M0 0 C2 1 2 1 2 1 Z " fill="#000000" transform="translate(180,68)"/>
<path d="M0 0 C2 1 2 1 2 1 Z " fill="#000000" transform="translate(306,65)"/>
<path d="" fill="#000000" transform="translate(0,0)"/>
<path d="M0 0 C2 1 2 1 2 1 Z " fill="#000000" transform="translate(120,64)"/>
<path d="M0 0 C2 1 2 1 2 1 Z " fill="#000000" transform="translate(98,64)"/>
<path d="" fill="#000000" transform="translate(0,0)"/>
<path d="M0 0 C2 1 2 1 2 1 Z " fill="#000000" transform="translate(343,60)"/>
<path d="M0 0 C2 1 2 1 2 1 Z " fill="#000000" transform="translate(243,60)"/>
<path d="" fill="#000000" transform="translate(0,0)"/>
<path d="" fill="#000000" transform="translate(0,0)"/>
<path d="" fill="#000000" transform="translate(0,0)"/>
<path d="" fill="#000000" transform="translate(0,0)"/>
<path d="M0 0 C2 1 2 1 2 1 Z " fill="#000000" transform="translate(73,47)"/>
<path d="M0 0 C2 1 2 1 2 1 Z " fill="#000000" transform="translate(110,45)"/>
<path d="M0 0 C2 1 2 1 2 1 Z " fill="#000000" transform="translate(76,45)"/>
<path d="M0 0 C2 1 2 1 2 1 Z " fill="#000000" transform="translate(78,44)"/>
<path d="" fill="#000000" transform="translate(0,0)"/>
<path d="" fill="#000000" transform="translate(0,0)"/>
<path d="" fill="#000000" transform="translate(0,0)"/>
<path d="" fill="#000000" transform="translate(0,0)"/>
<path d="" fill="#000000" transform="translate(0,0)"/>
<path d="" fill="#000000" transform="translate(0,0)"/>
<path d="" fill="#000000" transform="translate(0,0)"/>
<path d="" fill="#000000" transform="translate(0,0)"/>
<path d="" fill="#000000" transform="translate(0,0)"/>
<path d="" fill="#000000" transform="translate(0,0)"/>
<path d="" fill="#000000" transform="translate(0,0)"/>
<path d="" fill="#000000" transform="translate(0,0)"/>
<path d="" fill="#000000" transform="translate(0,0)"/>
<path d="" fill="#000000" transform="translate(0,0)"/>
<path d="" fill="#000000" transform="translate(0,0)"/>
<path d="" fill="#000000" transform="translate(0,0)"/>
<path d="" fill="#000000" transform="translate(0,0)"/>
<path d="" fill="#000000" transform="translate(0,0)"/>
<path d="" fill="#000000" transform="translate(0,0)"/>
<path d="" fill="#000000" transform="translate(0,0)"/>
<path d="" fill="#000000" transform="translate(0,0)"/>
<path d="" fill="#000000" transform="translate(0,0)"/>
<path d="" fill="#000000" transform="translate(0,0)"/>
<path d="" fill="#000000" transform="translate(0,0)"/>
<path d="" fill="#000000" transform="translate(0,0)"/>
<path d="" fill="#000000" transform="translate(0,0)"/>
<path d="" fill="#000000" transform="translate(0,0)"/>
<path d="" fill="#000000" transform="translate(0,0)"/>
<path d="" fill="#000000" transform="translate(0,0)"/>
<path d="" fill="#000000" transform="translate(0,0)"/>
<path d="" fill="#000000" transform="translate(0,0)"/>
<path d="" fill="#000000" transform="translate(0,0)"/>
<path d="" fill="#000000" transform="translate(0,0)"/>
<path d="" fill="#000000" transform="translate(0,0)"/>
<path d="" fill="#000000" transform="translate(0,0)"/>
<path d="" fill="#000000" transform="translate(0,0)"/>
<path d="" fill="#000000" transform="translate(0,0)"/>
<path d="" fill="#000000" transform="translate(0,0)"/>
<path d="" fill="#000000" transform="translate(0,0)"/>
<path d="" fill="#000000" transform="translate(0,0)"/>
<path d="" fill="#000000" transform="translate(0,0)"/>
<path d="" fill="#000000" transform="translate(0,0)"/>
<path d="" fill="#000000" transform="translate(0,0)"/>
<path d="" fill="#000000" transform="translate(0,0)"/>
<path d="" fill="#000000" transform="translate(0,0)"/>
<path d="" fill="#000000" transform="translate(0,0)"/>
<path d="" fill="#000000" transform="translate(0,0)"/>
<path d="" fill="#000000" transform="translate(0,0)"/>
<path d="" fill="#000000" transform="translate(0,0)"/>
<path d="" fill="#000000" transform="translate(0,0)"/>
<path d="" fill="#000000" transform="translate(0,0)"/>
<path d="" fill="#000000" transform="translate(0,0)"/>
<path d="" fill="#000000" transform="translate(0,0)"/>
<path d="" fill="#000000" transform="translate(0,0)"/>
<path d="" fill="#000000" transform="translate(0,0)"/>
<path d="" fill="#000000" transform="translate(0,0)"/>
<path d="" fill="#000000" transform="translate(0,0)"/>
<path d="" fill="#000000" transform="translate(0,0)"/>
<path d="" fill="#000000" transform="translate(0,0)"/>
<path d="" fill="#000000" transform="translate(0,0)"/>
<path d="" fill="#000000" transform="translate(0,0)"/>
<path d="" fill="#000000" transform="translate(0,0)"/>
<path d="" fill="#000000" transform="translate(0,0)"/>
<path d="" fill="#000000" transform="translate(0,0)"/>
<path d="" fill="#000000" transform="translate(0,0)"/>
<path d="" fill="#000000" transform="translate(0,0)"/>
<path d="" fill="#000000" transform="translate(0,0)"/>
<path d="" fill="#000000" transform="translate(0,0)"/>
<path d="" fill="#000000" transform="translate(0,0)"/>
<path d="" fill="#000000" transform="translate(0,0)"/>
<path d="" fill="#000000" transform="translate(0,0)"/>
<path d="" fill="#000000" transform="translate(0,0)"/>
<path d="" fill="#000000" transform="translate(0,0)"/>
<path d="" fill="#000000" transform="translate(0,0)"/>
<path d="" fill="#000000" transform="translate(0,0)"/>
<path d="" fill="#000000" transform="translate(0,0)"/>
<path d="" fill="#000000" transform="translate(0,0)"/>
<path d="" fill="#000000" transform="translate(0,0)"/>
<path d="" fill="#000000" transform="translate(0,0)"/>
<path d="" fill="#000000" transform="translate(0,0)"/>
<path d="" fill="#000000" transform="translate(0,0)"/>
<path d="" fill="#000000" transform="translate(0,0)"/>
<path d="" fill="#000000" transform="translate(0,0)"/>
<path d="" fill="#000000" transform="translate(0,0)"/>
<path d="" fill="#000000" transform="translate(0,0)"/>
<path d="" fill="#000000" transform="translate(0,0)"/>
<path d="" fill="#000000" transform="translate(0,0)"/>
<path d="" fill="#000000" transform="translate(0,0)"/>
<path d="" fill="#000000" transform="translate(0,0)"/>
<path d="" fill="#000000" transform="translate(0,0)"/>
<path d="" fill="#000000" transform="translate(0,0)"/>
<path d="" fill="#000000" transform="translate(0,0)"/>
<path d="" fill="#000000" transform="translate(0,0)"/>
<path d="" fill="#000000" transform="translate(0,0)"/>
<path d="" fill="#000000" transform="translate(0,0)"/>
<path d="" fill="#000000" transform="translate(0,0)"/>
<path d="" fill="#000000" transform="translate(0,0)"/>
<path d="" fill="#000000" transform="translate(0,0)"/>
<path d="" fill="#000000" transform="translate(0,0)"/>
<path d="" fill="#000000" transform="translate(0,0)"/>
<path d="" fill="#000000" transform="translate(0,0)"/>
<path d="" fill="#000000" transform="translate(0,0)"/>
<path d="" fill="#000000" transform="translate(0,0)"/>
<path d="" fill="#000000" transform="translate(0,0)"/>
<path d="" fill="#000000" transform="translate(0,0)"/>
<path d="" fill="#000000" transform="translate(0,0)"/>
<path d="" fill="#000000" transform="translate(0,0)"/>
<path d="" fill="#000000" transform="translate(0,0)"/>
<path d="" fill="#000000" transform="translate(0,0)"/>
<path d="" fill="#000000" transform="translate(0,0)"/>
<path d="" fill="#000000" transform="translate(0,0)"/>
<path d="" fill="#000000" transform="translate(0,0)"/>
<path d="" fill="#000000" transform="translate(0,0)"/>
<path d="" fill="#000000" transform="translate(0,0)"/>
<path d="" fill="#000000" transform="translate(0,0)"/>
<path d="" fill="#000000" transform="translate(0,0)"/>
<path d="" fill="#000000" transform="translate(0,0)"/>
<path d="" fill="#000000" transform="translate(0,0)"/>
<path d="" fill="#000000" transform="translate(0,0)"/>
<path d="" fill="#000000" transform="translate(0,0)"/>
<path d="" fill="#000000" transform="translate(0,0)"/>
<path d="" fill="#000000" transform="translate(0,0)"/>
<path d="" fill="#000000" transform="translate(0,0)"/>
<path d="" fill="#000000" transform="translate(0,0)"/>
<path d="" fill="#000000" transform="translate(0,0)"/>
<path d="" fill="#000000" transform="translate(0,0)"/>
<path d="" fill="#000000" transform="translate(0,0)"/>
<path d="" fill="#000000" transform="translate(0,0)"/>
<path d="" fill="#000000" transform="translate(0,0)"/>
<path d="" fill="#000000" transform="translate(0,0)"/>
<path d="" fill="#000000" transform="translate(0,0)"/>
<path d="" fill="#000000" transform="translate(0,0)"/>
<path d="" fill="#000000" transform="translate(0,0)"/>
<path d="" fill="#000000" transform="translate(0,0)"/>
<path d="" fill="#000000" transform="translate(0,0)"/>
<path d="" fill="#000000" transform="translate(0,0)"/>
<path d="" fill="#000000" transform="translate(0,0)"/>
<path d="" fill="#000000" transform="translate(0,0)"/>
<path d="" fill="#000000" transform="translate(0,0)"/>
<path d="" fill="#000000" transform="translate(0,0)"/>
<path d="" fill="#000000" transform="translate(0,0)"/>
<path d="" fill="#000000" transform="translate(0,0)"/>
<path d="" fill="#000000" transform="translate(0,0)"/>
<path d="" fill="#000000" transform="translate(0,0)"/>
<path d="" fill="#000000" transform="translate(0,0)"/>
<path d="" fill="#000000" transform="translate(0,0)"/>
<path d="" fill="#000000" transform="translate(0,0)"/>
<path d="" fill="#000000" transform="translate(0,0)"/>
<path d="" fill="#000000" transform="translate(0,0)"/>
<path d="" fill="#000000" transform="translate(0,0)"/>
<path d="" fill="#000000" transform="translate(0,0)"/>
<path d="" fill="#000000" transform="translate(0,0)"/>
<path d="" fill="#000000" transform="translate(0,0)"/>
<path d="" fill="#000000" transform="translate(0,0)"/>
<path d="" fill="#000000" transform="translate(0,0)"/>
<path d="" fill="#000000" transform="translate(0,0)"/>
<path d="" fill="#000000" transform="translate(0,0)"/>
<path d="" fill="#000000" transform="translate(0,0)"/>
<path d="" fill="#000000" transform="translate(0,0)"/>
<path d="" fill="#000000" transform="translate(0,0)"/>
<path d="" fill="#000000" transform="translate(0,0)"/>
<path d="" fill="#000000" transform="translate(0,0)"/>
<path d="" fill="#000000" transform="translate(0,0)"/>
<path d="" fill="#000000" transform="translate(0,0)"/>
<path d="" fill="#000000" transform="translate(0,0)"/>
<path d="" fill="#000000" transform="translate(0,0)"/>
<path d="" fill="#000000" transform="translate(0,0)"/>
<path d="" fill="#000000" transform="translate(0,0)"/>
<path d="" fill="#000000" transform="translate(0,0)"/>
<path d="" fill="#000000" transform="translate(0,0)"/>
<path d="" fill="#000000" transform="translate(0,0)"/>
<path d="" fill="#000000" transform="translate(0,0)"/>
<path d="" fill="#000000" transform="translate(0,0)"/>
<path d="" fill="#000000" transform="translate(0,0)"/>
<path d="" fill="#000000" transform="translate(0,0)"/>
<path d="" fill="#000000" transform="translate(0,0)"/>
<path d="" fill="#000000" transform="translate(0,0)"/>
<path d="" fill="#000000" transform="translate(0,0)"/>
<path d="" fill="#000000" transform="translate(0,0)"/>
<path d="" fill="#000000" transform="translate(0,0)"/>
<path d="" fill="#000000" transform="translate(0,0)"/>
<path d="" fill="#000000" transform="translate(0,0)"/>
<path d="" fill="#000000" transform="translate(0,0)"/>
<path d="" fill="#000000" transform="translate(0,0)"/>
<path d="" fill="#000000" transform="translate(0,0)"/>
<path d="" fill="#000000" transform="translate(0,0)"/>
<path d="" fill="#000000" transform="translate(0,0)"/>
<path d="" fill="#000000" transform="translate(0,0)"/>
<path d="" fill="#000000" transform="translate(0,0)"/>
<path d="" fill="#000000" transform="translate(0,0)"/>
<path d="" fill="#000000" transform="translate(0,0)"/>
<path d="" fill="#000000" transform="translate(0,0)"/>
<path d="" fill="#000000" transform="translate(0,0)"/>
<path d="" fill="#000000" transform="translate(0,0)"/>
<path d="" fill="#000000" transform="translate(0,0)"/>
<path d="" fill="#000000" transform="translate(0,0)"/>
<path d="" fill="#000000" transform="translate(0,0)"/>
<path d="" fill="#000000" transform="translate(0,0)"/>
<path d="" fill="#000000" transform="translate(0,0)"/>
<path d="" fill="#000000" transform="translate(0,0)"/>
<path d="" fill="#000000" transform="translate(0,0)"/>
<path d="" fill="#000000" transform="translate(0,0)"/>
<path d="" fill="#000000" transform="translate(0,0)"/>
<path d="" fill="#000000" transform="translate(0,0)"/>
<path d="" fill="#000000" transform="translate(0,0)"/>
<path d="" fill="#000000" transform="translate(0,0)"/>
<path d="" fill="#000000" transform="translate(0,0)"/>
<path d="" fill="#000000" transform="translate(0,0)"/>
<path d="" fill="#000000" transform="translate(0,0)"/>
<path d="" fill="#000000" transform="translate(0,0)"/>
<path d="" fill="#000000" transform="translate(0,0)"/>
<path d="" fill="#000000" transform="translate(0,0)"/>
<path d="" fill="#000000" transform="translate(0,0)"/>
<path d="" fill="#000000" transform="translate(0,0)"/>
<path d="" fill="#000000" transform="translate(0,0)"/>
<path d="" fill="#000000" transform="translate(0,0)"/>
<path d="" fill="#000000" transform="translate(0,0)"/>
<path d="" fill="#000000" transform="translate(0,0)"/>
<path d="" fill="#000000" transform="translate(0,0)"/>
<path d="" fill="#000000" transform="translate(0,0)"/>
<path d="" fill="#000000" transform="translate(0,0)"/>
<path d="" fill="#000000" transform="translate(0,0)"/>
<path d="" fill="#000000" transform="translate(0,0)"/>
<path d="" fill="#000000" transform="translate(0,0)"/>
<path d="" fill="#000000" transform="translate(0,0)"/>
<path d="" fill="#000000" transform="translate(0,0)"/>
<path d="" fill="#000000" transform="translate(0,0)"/>
<path d="" fill="#000000" transform="translate(0,0)"/>
<path d="" fill="#000000" transform="translate(0,0)"/>
<path d="" fill="#000000" transform="translate(0,0)"/>
<path d="" fill="#000000" transform="translate(0,0)"/>
<path d="" fill="#000000" transform="translate(0,0)"/>
<path d="" fill="#000000" transform="translate(0,0)"/>
<path d="" fill="#000000" transform="translate(0,0)"/>
<path d="" fill="#000000" transform="translate(0,0)"/>
<path d="" fill="#000000" transform="translate(0,0)"/>
<path d="" fill="#000000" transform="translate(0,0)"/>
<path d="" fill="#000000" transform="translate(0,0)"/>
<path d="" fill="#000000" transform="translate(0,0)"/>
<path d="" fill="#000000" transform="translate(0,0)"/>
<path d="" fill="#000000" transform="translate(0,0)"/>
<path d="" fill="#000000" transform="translate(0,0)"/>
<path d="" fill="#000000" transform="translate(0,0)"/>
<path d="" fill="#000000" transform="translate(0,0)"/>
<path d="" fill="#000000" transform="translate(0,0)"/>
<path d="" fill="#000000" transform="translate(0,0)"/>
<path d="" fill="#000000" transform="translate(0,0)"/>
<path d="" fill="#000000" transform="translate(0,0)"/>
</svg>
